<?xml version="1.0" standalone="no"?>
<!DOCTYPE svg PUBLIC "-//W3C//DTD SVG 20010904//EN"
 "http://www.w3.org/TR/2001/REC-SVG-20010904/DTD/svg10.dtd">
<svg version="1.0" xmlns="http://www.w3.org/2000/svg"
 width="1016.000000pt" height="1016.000000pt" viewBox="0 0 1016.000000 1016.000000"
 preserveAspectRatio="xMidYMid meet">
<metadata>
Created by potrace 1.14, written by Peter Selinger 2001-2017
</metadata>
<g transform="translate(0.000000,1016.000000) scale(0.100000,-0.100000)"
fill="#000000" stroke="none">
<path d="M4848 10154 c-4 -3 -38 -8 -75 -9 -72 -3 -187 -12 -238 -19 -16 -2
-55 -7 -85 -11 -51 -6 -143 -19 -200 -29 -14 -3 -41 -7 -61 -10 -20 -3 -90
-17 -155 -31 -66 -14 -130 -28 -144 -31 -100 -20 -541 -158 -635 -199 -16 -7
-61 -25 -100 -41 -38 -16 -72 -31 -75 -34 -3 -3 -12 -6 -20 -8 -48 -11 -423
-200 -532 -269 -21 -12 -42 -23 -48 -23 -6 0 -13 -7 -16 -15 -4 -8 -10 -13
-14 -10 -5 3 -11 1 -14 -4 -3 -5 -31 -23 -61 -40 -30 -17 -55 -36 -55 -42 0
-5 -4 -8 -9 -4 -5 3 -15 0 -23 -7 -26 -25 -106 -78 -117 -78 -6 0 -11 -4 -11
-9 0 -4 -20 -21 -45 -37 -25 -15 -45 -32 -45 -36 0 -4 -5 -8 -10 -8 -11 0 -26
-11 -66 -47 -14 -13 -27 -23 -30 -23 -3 0 -11 -6 -18 -12 -7 -7 -28 -24 -46
-38 -18 -14 -44 -35 -56 -47 -13 -13 -25 -23 -28 -23 -4 0 -48 -38 -140 -122
-23 -21 -44 -38 -48 -38 -5 0 -8 -7 -8 -16 0 -8 -3 -13 -7 -11 -11 6 -53 -39
-45 -48 4 -4 2 -5 -4 -3 -15 4 -74 -54 -67 -66 4 -6 3 -8 -1 -4 -11 9 -46 -23
-39 -35 3 -6 2 -8 -3 -4 -5 3 -34 -22 -64 -55 -30 -33 -67 -74 -82 -90 -16
-17 -28 -34 -28 -39 0 -5 -6 -9 -13 -9 -7 0 -20 -12 -30 -27 -9 -16 -33 -46
-52 -68 -20 -22 -62 -74 -93 -115 -31 -41 -61 -80 -67 -86 -20 -22 -116 -159
-116 -166 0 -4 -13 -22 -29 -40 -17 -18 -33 -42 -36 -53 -4 -11 -10 -22 -14
-25 -13 -9 -100 -150 -93 -150 4 0 -2 -7 -13 -15 -10 -8 -15 -15 -10 -15 5 0
2 -8 -6 -17 -22 -26 -116 -199 -182 -338 -32 -66 -64 -132 -73 -147 -8 -16
-11 -28 -7 -28 4 0 -1 -9 -11 -20 -10 -11 -15 -20 -10 -20 4 0 3 -6 -3 -12
-19 -24 -174 -442 -186 -501 -2 -12 -11 -41 -20 -65 -9 -24 -15 -46 -14 -50 1
-4 -1 -14 -5 -22 -9 -23 -39 -132 -44 -160 -2 -14 -8 -41 -13 -60 -5 -19 -16
-71 -25 -115 -9 -44 -19 -89 -21 -100 -2 -11 -6 -42 -9 -68 -3 -27 -7 -52 -9
-56 -3 -4 -8 -30 -11 -57 -4 -27 -8 -60 -10 -74 -3 -25 -15 -129 -21 -185 -26
-258 -25 -708 2 -980 6 -66 42 -333 49 -365 3 -14 7 -38 10 -55 3 -16 8 -41
10 -55 3 -14 7 -34 9 -45 4 -19 45 -199 50 -220 22 -87 66 -247 73 -265 3 -8
7 -19 9 -25 11 -43 104 -301 141 -390 92 -226 256 -549 364 -720 118 -187 185
-283 194 -278 5 4 7 3 3 -2 -7 -7 50 -94 98 -147 13 -15 24 -31 24 -35 0 -5
16 -25 35 -46 19 -21 35 -41 35 -45 0 -4 24 -33 54 -64 29 -32 52 -58 49 -58
-16 0 385 -405 494 -498 45 -38 97 -84 115 -101 18 -17 38 -31 43 -31 6 0 16
-9 23 -21 7 -12 16 -18 19 -15 3 3 11 -1 17 -8 6 -8 45 -39 86 -70 41 -30 80
-60 87 -66 7 -5 15 -10 18 -10 3 0 15 -9 27 -20 12 -11 28 -20 35 -20 7 0 13
-4 13 -8 0 -10 203 -142 218 -142 6 0 12 -4 14 -9 2 -5 53 -36 113 -70 61 -34
117 -66 125 -71 23 -14 319 -160 324 -160 3 0 33 -13 68 -29 70 -32 109 -46
121 -43 4 1 7 -2 7 -6 0 -7 29 -19 90 -37 3 -1 16 -6 30 -12 31 -13 178 -64
199 -69 9 -2 43 -13 75 -24 33 -11 62 -18 64 -15 3 3 11 0 18 -6 7 -6 28 -13
46 -16 18 -3 40 -9 48 -13 8 -4 42 -14 75 -21 33 -7 65 -14 70 -15 87 -23 342
-71 423 -79 23 -2 51 -6 61 -10 10 -3 42 -7 72 -10 30 -3 72 -7 94 -10 73 -9
411 -28 510 -29 61 -1 309 12 400 20 123 11 162 14 195 19 19 2 59 7 88 10 29
4 63 8 75 11 12 2 38 7 57 10 19 2 58 9 85 14 28 5 61 12 75 14 115 20 499
118 525 134 5 3 16 7 25 8 19 2 198 61 225 74 24 12 76 32 90 36 21 5 184 74
257 108 42 20 81 36 86 36 4 0 14 6 21 12 6 7 15 13 19 13 15 2 254 128 324
172 21 13 42 23 48 23 5 0 10 5 10 10 0 6 7 10 15 10 8 0 15 5 15 10 0 6 5 10
11 10 6 0 64 35 128 77 64 43 121 80 126 82 6 2 12 7 15 10 7 8 79 63 110 83
14 9 38 28 54 42 16 14 32 26 35 26 3 0 26 19 51 41 25 23 46 40 48 39 2 -1
29 21 60 49 31 28 60 51 64 51 5 0 8 7 8 15 0 8 4 14 9 13 12 -4 81 60 81 73
0 6 4 8 8 5 7 -4 302 286 302 297 0 2 17 22 38 44 54 57 136 152 146 171 5 10
15 22 22 27 12 10 133 168 164 215 8 12 29 41 47 63 17 23 29 45 27 49 -3 4
-1 8 4 8 10 0 170 251 231 360 59 107 241 478 245 500 1 5 10 27 47 115 33 79
57 145 52 145 -3 0 -1 6 5 12 16 21 134 406 157 517 2 9 10 45 19 81 18 79 62
316 70 385 4 28 9 64 11 80 7 49 16 124 21 184 2 31 7 85 11 121 4 36 7 189 8
340 0 253 -4 339 -21 490 -4 30 -8 66 -9 80 -6 60 -17 141 -30 220 -8 47 -17
101 -19 120 -6 39 -13 73 -20 98 -3 9 -7 33 -10 53 -3 20 -10 48 -15 63 -6 14
-9 26 -6 26 2 0 -2 21 -10 48 -8 26 -16 58 -19 72 -5 29 -54 198 -63 220 -3 8
-6 18 -5 21 1 4 -8 31 -19 60 -11 30 -21 59 -23 64 -8 34 -40 122 -47 130 -5
5 -9 17 -9 27 0 10 -4 26 -10 36 -5 9 -26 58 -46 107 -20 50 -51 122 -70 162
-19 40 -34 77 -34 83 0 5 -5 10 -12 10 -6 0 -9 3 -6 6 4 3 -16 47 -43 97 -26
51 -56 109 -65 130 -9 20 -20 37 -25 37 -5 0 -8 3 -7 8 2 6 -40 81 -136 242
-16 27 -33 47 -38 44 -4 -3 -8 3 -8 12 0 10 -22 48 -50 86 -27 38 -50 73 -50
78 0 5 -10 16 -22 24 -12 9 -19 16 -15 16 4 0 3 6 -3 13 -10 11 -92 119 -135
176 -47 62 -159 191 -167 191 -4 0 -8 7 -8 15 0 8 -7 15 -16 15 -8 0 -13 4
-10 8 6 10 -238 262 -254 262 -6 0 -9 3 -7 8 2 4 -4 15 -15 25 -10 9 -18 16
-18 14 0 -2 -22 17 -48 42 -26 25 -74 69 -106 96 -32 28 -64 56 -71 63 -8 6
-16 12 -19 12 -3 0 -19 12 -35 28 -32 29 -33 30 -101 82 -25 19 -46 38 -48 43
-2 4 -10 7 -17 7 -7 0 -15 4 -17 8 -1 4 -25 23 -53 42 -27 19 -52 37 -55 40
-17 17 -130 90 -139 90 -6 0 -11 5 -11 10 0 6 -4 10 -9 10 -5 0 -35 17 -67 39
-76 50 -266 159 -285 163 -7 2 -16 6 -19 9 -9 11 -120 70 -120 64 0 -4 -15 4
-32 17 -18 13 -35 23 -38 22 -3 0 -34 13 -70 29 -36 16 -83 37 -105 47 -94 43
-364 145 -430 164 -5 1 -55 16 -110 33 -104 32 -177 52 -204 58 -9 2 -64 15
-122 29 -118 28 -345 71 -429 81 -30 3 -66 8 -80 10 -37 6 -116 14 -195 21
-38 3 -92 8 -120 11 -86 8 -550 15 -557 7z"/>
</g>
</svg>
